# xmcd
#
# Track frame offsets: 
#        150
#        11572
#        21772
#        32602
#        44282
#        58975
#        69952
#        81120
#        94522
#        107722
#        117750
#        131342
#
# Disc length: 1957 seconds
#
# Revision: 4
# Processed by: cddbd v1.5.2PL0 Copyright (c) Steve Scherf et al.
# Submitted via: ExactAudioCopy v0.95b4
#
DISCID=8f07a30c
DTITLE=Chris LeDoux - Life As A Rodeo Man
DYEAR=1975
DGENRE=Country
TTITLE0=Rusty Spurs
TTITLE1=Amarillo By Morning
TTITLE2=Time
TTITLE3=Born To Follow Rodeo
TTITLE4=Caballo Diablo
TTITLE5=Wyoming Girl
TTITLE6=I'm Country
TTITLE7=Rhinestone Cowboy
TTITLE8=Long Black Veil
TTITLE9=Rodeo Rose
TTITLE10=All Around Cowboy Of '64
TTITLE11=John Ed Sang Cowpoke
EXTD=
EXTT0=
EXTT1=
EXTT2=
EXTT3=
EXTT4=
EXTT5=
EXTT6=
EXTT7=
EXTT8=
EXTT9=
EXTT10=
EXTT11=
PLAYORDER=
